<svg xmlns="http://www.w3.org/2000/svg" version="1.1" viewBox="-5.0 -10.0 110.0 135.0">
 <path d="m17.488 23.031c0 0.82812-0.67188 1.5-1.5 1.5s-1.5-0.67188-1.5-1.5v-9.6289c0-0.82812 0.67188-1.5 1.5-1.5h68.027c0.82812 0 1.5 0.67188 1.5 1.5v50.414l10.609 12.113c0.24609 0.28516 0.37109 0.63281 0.37109 0.98437l0.003906 4.2891c0 1.8867-0.77734 3.6055-2.0273 4.8555-1.2539 1.2539-2.9766 2.0312-4.8633 2.0312h-59.359c-0.82812 0-1.5-0.67188-1.5-1.5s0.67188-1.5 1.5-1.5h59.359c1.0625 0 2.0391-0.44141 2.7422-1.1445 0.70703-0.70703 1.1445-1.6797 1.1445-2.7422v-2.0078h-87v2.0078c0 1.0664 0.44141 2.0391 1.1445 2.7422 0.70703 0.70703 1.6836 1.1484 2.7461 1.1484h13.629c0.82812 0 1.5 0.67188 1.5 1.5s-0.67188 1.5-1.5 1.5h-13.629c-1.8906 0-3.6172-0.77734-4.8672-2.0273-1.2461-1.2461-2.0234-2.9688-2.0234-4.8633v-4.2891c0-0.42187 0.17188-0.80078 0.45312-1.0742l10.531-12.023v-28.141c0-0.82812 0.67188-1.5 1.5-1.5s1.5 0.67188 1.5 1.5v27.09h61.035c0.82812 0 1.5 0.67188 1.5 1.5s-0.67188 1.5-1.5 1.5h-61.766l-9.1367 10.43h29.59l2.3008-4.9609c0.25391-0.54688 0.79297-0.87109 1.3594-0.87109l18.273-0.003906c0.63672 0 1.1797 0.39844 1.3984 0.95703l2.2617 4.875h29.586l-9.4141-10.75c-0.28125-0.27344-0.45312-0.65234-0.45312-1.0742v-49.473h-65.027zm35.066 6.6094c0.33984-0.75391 1.2266-1.0898 1.9805-0.75s1.0898 1.2266 0.75 1.9805l-7.8359 17.266c-0.33984 0.75391-1.2266 1.0898-1.9805 0.75-0.75391-0.33984-1.0898-1.2266-0.75-1.9805zm-12.047 2.6094c0.65234-0.50391 1.5938-0.38281 2.0977 0.26953 0.50391 0.65234 0.38281 1.5938-0.26953 2.0977l-5.5156 4.2695 5.5156 4.2695c0.65234 0.50391 0.77344 1.4453 0.26953 2.0977-0.50391 0.65234-1.4453 0.77344-2.0977 0.26953l-7.0234-5.4375c-0.10547-0.078126-0.20312-0.17578-0.28906-0.28516-0.50391-0.65234-0.38281-1.5938 0.26953-2.0977zm17.152 2.3672c-0.65234-0.50391-0.77344-1.4453-0.26953-2.0977 0.50391-0.65234 1.4453-0.77344 2.0977-0.26953l7.043 5.4531c0.65234 0.50391 0.77344 1.4453 0.26953 2.0977-0.085937 0.10938-0.18359 0.20703-0.28906 0.28516l-7.0234 5.4375c-0.65234 0.50391-1.5938 0.38281-2.0977-0.26953s-0.38281-1.5938 0.26953-2.0977l5.5156-4.2695zm-36.188-17.227h57.055c0.82812 0 1.5 0.67188 1.5 1.5v39.996c0 0.82812-0.67188 1.5-1.5 1.5h-57.055c-0.82812 0-1.5-0.67188-1.5-1.5v-39.996c0-0.82812 0.67188-1.5 1.5-1.5zm55.555 3h-54.055v36.996h54.055zm-36.523 55.805h18.992l-1.3125-2.832h-16.363l-1.3125 2.832zm-23.02-46.754c0 0.82812-0.67188 1.5-1.5 1.5s-1.5-0.67188-1.5-1.5v-0.17578c0-0.82812 0.67188-1.5 1.5-1.5s1.5 0.67188 1.5 1.5z"/>
<text x="0.0" y="117.5" font-size="5.0" font-weight="bold" font-family="Arbeit Regular, Helvetica, Arial-Unicode, Arial, Sans-serif" fill="#000000">Created by Soetarman Atmodjo</text><text x="0.0" y="122.5" font-size="5.0" font-weight="bold" font-family="Arbeit Regular, Helvetica, Arial-Unicode, Arial, Sans-serif" fill="#000000">from Noun Project</text></svg>